<svg width="275" height="215" viewBox="0 0 275 215" fill="none" xmlns="http://www.w3.org/2000/svg">
<path d="M22.7032 93.1017L8.55247 48.7595L26.0469 43.1765C29.3956 42.1079 32.4448 41.7948 35.1944 42.2374C37.9537 42.661 40.3019 43.7645 42.2388 45.5479C44.1855 47.3123 45.6265 49.6596 46.5616 52.5898C47.5013 55.5344 47.6746 58.2703 47.0815 60.7975C46.4838 63.3103 45.1593 65.5142 43.1081 67.4094C41.0713 69.2999 38.3496 70.7887 34.9431 71.8758L23.2297 75.6139L20.8252 68.0792L31.023 64.8248C32.8129 64.2536 34.2213 63.5337 35.2483 62.6652C36.2753 61.7968 36.9209 60.7796 37.185 59.6138C37.4636 58.4434 37.3702 57.1293 36.905 55.6714C36.4351 54.1991 35.7431 53.0522 34.8288 52.2307C33.929 51.4045 32.7972 50.9228 31.4333 50.7855C30.0792 50.6291 28.5001 50.8389 26.6958 51.4147L20.3735 53.4323L32.0783 90.1099L22.7032 93.1017ZM40.2101 65.2806L57.6704 81.9428L47.321 85.2455L30.0988 68.5073L40.2101 65.2806ZM70.3966 78.5733C68.2748 79.2505 66.2664 79.4858 64.3715 79.2794C62.472 79.0586 60.8061 78.3735 59.3738 77.2243C57.9513 76.056 56.8899 74.3749 56.1898 72.1808C55.6001 70.3332 55.4442 68.6733 55.7218 67.201C55.9995 65.7287 56.6008 64.4235 57.5259 63.2854C58.4509 62.1473 59.5946 61.1461 60.957 60.2819C62.3338 59.4131 63.8196 58.6368 65.4144 57.9529C67.2842 57.1335 68.7832 56.4484 69.9115 55.8975C71.0353 55.3321 71.8066 54.7838 72.2255 54.2525C72.6444 53.7212 72.741 53.1019 72.5153 52.3946L72.4738 52.2647C72.0362 50.8934 71.2646 49.9707 70.159 49.4965C69.0679 49.0177 67.7356 49.0293 66.1623 49.5314C64.5023 50.0612 63.2991 50.8507 62.5524 51.9001C61.8012 52.9351 61.4419 54.0517 61.4744 55.2501L52.7226 57.2796C52.5108 55.1206 52.805 53.1022 53.6054 51.2246C54.4011 49.3325 55.6755 47.6694 57.4286 46.2352C59.1914 44.782 61.4008 43.6316 64.0567 42.784C65.9043 42.1944 67.7416 41.8466 69.5686 41.7407C71.4101 41.6302 73.1326 41.82 74.7364 42.3102C76.3545 42.7958 77.7741 43.631 78.9952 44.8158C80.2116 45.9863 81.1354 47.5602 81.7664 49.5377L88.9248 71.9687L80.1776 74.7601L78.7058 70.1484L78.446 70.2313C78.2436 71.441 77.8216 72.5856 77.18 73.6651C76.5338 74.7301 75.6542 75.6868 74.5413 76.535C73.4237 77.3688 72.0421 78.0482 70.3966 78.5733ZM71.0067 71.3648C72.3635 70.9318 73.4763 70.2825 74.3452 69.4168C75.2094 68.5366 75.79 67.5402 76.087 66.4275C76.384 65.3149 76.3459 64.1739 75.9728 63.0048L74.8466 59.4756C74.6178 59.7553 74.2761 60.0552 73.8216 60.3752C73.3769 60.6762 72.8649 60.9907 72.2857 61.3186C71.7019 61.6322 71.1157 61.9385 70.5273 62.2376C69.9343 62.5223 69.3967 62.7814 68.9145 63.0148C67.8826 63.519 67.0177 64.0733 66.32 64.6777C65.6222 65.2821 65.144 65.9516 64.8854 66.6862C64.6222 67.4064 64.6288 68.1995 64.9052 69.0655C65.3059 70.3213 66.0669 71.1361 67.1882 71.5099C68.3193 71.8646 69.5921 71.8163 71.0067 71.3648ZM98.2314 82.74L83.6384 37.0121L92.732 34.1101L94.5147 39.6962L94.926 39.5649C95.0446 38.541 95.339 37.4451 95.8092 36.2771C96.2892 35.0902 97.0509 33.9883 98.0942 32.9714C99.1473 31.9356 100.605 31.1205 102.467 30.5263C104.892 29.7524 107.332 29.6736 109.787 30.2897C112.237 30.8914 114.481 32.2666 116.519 34.4155C118.552 36.55 120.177 39.5226 121.393 43.3332C122.576 47.0429 122.977 50.3663 122.594 53.3035C122.221 56.2216 121.22 58.6645 119.589 60.6322C117.969 62.5807 115.895 63.9581 113.369 64.7642C111.579 65.3354 109.962 65.5255 108.517 65.3344C107.087 65.1388 105.832 64.7201 104.753 64.0786C103.669 63.4226 102.77 62.6994 102.057 61.9092L101.775 61.9991L107.455 79.7966L98.2314 82.74ZM97.9736 50.7592C98.6047 52.7367 99.4294 54.374 100.448 55.6713C101.466 56.9686 102.626 57.8627 103.928 58.3538C105.225 58.8305 106.617 58.8316 108.104 58.3572C109.605 57.8781 110.744 57.0613 111.521 55.9069C112.293 54.7381 112.711 53.3323 112.775 51.6896C112.849 50.0278 112.578 48.2298 111.96 46.2956C111.348 44.3758 110.542 42.7722 109.543 41.4848C108.543 40.1974 107.393 39.3081 106.091 38.817C104.789 38.3259 103.38 38.3222 101.865 38.8059C100.363 39.2849 99.2199 40.0872 98.434 41.2128C97.6625 42.3337 97.2351 43.7106 97.1519 45.3435C97.0686 46.9765 97.3425 48.7817 97.9736 50.7592Z" fill="#F5F5F5"/>
<path d="M126.868 94.9024C124.284 94.3281 122.17 93.2824 120.529 91.7651C118.9 90.2393 117.795 88.3757 117.213 86.1744C116.634 83.962 116.635 81.5468 117.217 78.9288C117.803 76.2886 118.826 74.0946 120.286 72.3468C121.747 70.5879 123.538 69.3676 125.656 68.6859C127.789 67.9955 130.147 67.9375 132.732 68.5118C135.316 69.086 137.423 70.1361 139.051 71.6619C140.693 73.1791 141.804 75.0439 142.383 77.2564C142.965 79.4577 142.963 81.8784 142.376 84.5186C141.794 87.1366 140.773 89.325 139.311 91.084C137.852 92.8318 136.056 94.0509 133.924 94.7412C131.805 95.4229 129.453 95.4766 126.868 94.9024ZM128.122 89.4186C129.298 89.6799 130.353 89.5652 131.289 89.0746C132.227 88.5729 133.025 87.7841 133.683 86.708C134.352 85.6344 134.852 84.3544 135.182 82.8679C135.512 81.3814 135.602 80.0102 135.45 78.7542C135.309 77.5007 134.921 76.4481 134.283 75.5965C133.646 74.7448 132.739 74.1883 131.564 73.9271C130.377 73.6634 129.303 73.7799 128.343 74.2766C127.394 74.7759 126.585 75.5623 125.915 76.6359C125.257 77.7119 124.763 78.9932 124.433 80.4797C124.103 81.9661 124.008 83.3361 124.148 84.5896C124.3 85.8456 124.7 86.9007 125.348 87.7548C126.01 88.6003 126.935 89.1549 128.122 89.4186ZM159.696 90.2525L162.957 75.5763L170.045 77.1512L164.367 102.71L157.561 101.198L158.593 96.5552L158.326 96.4961C157.417 97.8655 156.19 98.8559 154.645 99.4673C153.112 100.081 151.386 100.175 149.467 99.7486C147.759 99.369 146.342 98.6468 145.216 97.5819C144.091 96.517 143.321 95.1878 142.907 93.5941C142.504 92.0029 142.519 90.2076 142.951 88.2084L146.567 71.9348L153.655 73.5097L150.321 88.5187C149.996 90.0298 150.136 91.3123 150.74 92.3661C151.344 93.4199 152.318 94.0959 153.66 94.3942C154.514 94.5839 155.356 94.5673 156.185 94.3441C157.017 94.1099 157.747 93.6551 158.374 92.9796C159.013 92.3066 159.453 91.3976 159.696 90.2525Z" fill="#F5F5F5"/>
<path d="M98.1973 151.606L101.282 184.062L93.0258 185.074L88.1587 152.836L98.1973 151.606ZM98.9235 199.006C97.4346 199.188 96.0918 198.819 94.895 197.897C93.6964 196.96 93.0133 195.746 92.8459 194.255C92.6502 192.783 93.0217 191.455 93.9605 190.272C94.8992 189.088 96.113 188.405 97.6019 188.223C99.0306 188.048 100.351 188.42 101.563 189.34C102.775 190.26 103.478 191.456 103.674 192.928C103.781 193.923 103.629 194.865 103.219 195.754C102.822 196.627 102.248 197.362 101.497 197.958C100.744 198.538 99.886 198.888 98.9235 199.006ZM115.085 182.371L114.991 181.604C114.684 178.97 114.66 176.843 114.919 175.224C115.194 173.603 115.716 172.257 116.485 171.185C117.254 170.114 118.215 169.111 119.368 168.176C120.226 167.46 120.984 166.734 121.642 165.997C122.3 165.26 122.799 164.474 123.139 163.638C123.477 162.788 123.587 161.874 123.467 160.896C123.34 159.858 122.98 158.979 122.388 158.258C121.796 157.536 121.053 157.017 120.159 156.699C119.28 156.379 118.337 156.281 117.33 156.405C116.352 156.525 115.454 156.856 114.635 157.399C113.814 157.927 113.177 158.646 112.724 159.557C112.269 160.452 112.095 161.519 112.201 162.758L102.997 163.886C102.703 160.869 103.121 158.299 104.25 156.176C105.377 154.038 107.01 152.35 109.147 151.111C111.284 149.857 113.713 149.063 116.435 148.729C119.427 148.363 122.135 148.534 124.558 149.245C126.978 149.941 128.957 151.141 130.494 152.845C132.031 154.549 132.961 156.718 133.284 159.349C133.499 161.109 133.398 162.709 132.979 164.149C132.573 165.573 131.916 166.875 131.007 168.055C130.097 169.219 128.986 170.31 127.676 171.325C126.575 172.178 125.687 173.034 125.014 173.895C124.356 174.754 123.901 175.711 123.649 176.765C123.411 177.816 123.375 179.08 123.541 180.556L123.635 181.323L115.085 182.371ZM121.321 196.261C119.817 196.445 118.467 196.076 117.27 195.154C116.087 194.216 115.411 193.001 115.244 191.51C115.048 190.038 115.412 188.711 116.336 187.53C117.275 186.346 118.496 185.662 120 185.478C121.428 185.303 122.749 185.675 123.961 186.595C125.172 187.515 125.876 188.711 126.072 190.183C126.178 191.177 126.027 192.12 125.617 193.009C125.22 193.882 124.646 194.617 123.895 195.212C123.142 195.793 122.284 196.143 121.321 196.261Z" fill="#F5F5F5"/>
<path d="M62.7793 122.152L78.1752 78.2267L95.5052 84.3009C98.8368 85.4686 101.452 87.0997 103.351 89.1942C105.255 91.2744 106.428 93.6524 106.871 96.3283C107.333 98.9949 107.053 101.787 106.031 104.704C105.008 107.621 103.477 109.974 101.437 111.763C99.397 113.553 96.965 114.651 94.1411 115.058C91.3315 115.47 88.2395 115.085 84.865 113.902L73.8193 110.031L76.4279 102.588L85.9722 105.933C87.7596 106.56 89.3401 106.769 90.7138 106.56C92.1068 106.342 93.2822 105.782 94.24 104.882C95.2172 103.972 95.9589 102.795 96.465 101.351C96.9762 99.8923 97.1292 98.517 96.9238 97.2249C96.7378 95.9234 96.1637 94.7669 95.2017 93.7554C94.2448 92.7296 92.8654 91.901 91.0638 91.2695L84.801 89.0744L72.0663 125.407L62.7793 122.152ZM115.237 141.261C111.906 140.093 109.273 138.376 107.338 136.108C105.423 133.831 104.253 131.19 103.83 128.184C103.412 125.163 103.794 121.966 104.977 118.591C106.169 115.188 107.869 112.444 110.077 110.36C112.29 108.262 114.852 106.929 117.765 106.36C120.697 105.782 123.829 106.077 127.16 107.245C130.492 108.412 133.115 110.135 135.03 112.412C136.965 114.679 138.142 117.323 138.56 120.344C138.983 123.35 138.599 126.555 137.406 129.958C136.223 133.332 134.525 136.069 132.313 138.167C130.105 140.251 127.536 141.582 124.604 142.16C121.691 142.728 118.569 142.429 115.237 141.261ZM117.761 134.198C119.277 134.73 120.692 134.744 122.008 134.242C123.329 133.726 124.51 132.807 125.551 131.486C126.606 130.17 127.47 128.554 128.141 126.638C128.813 124.722 129.147 122.921 129.145 121.234C129.156 119.552 128.807 118.097 128.098 116.869C127.388 115.641 126.275 114.762 124.76 114.23C123.23 113.694 121.79 113.679 120.441 114.186C119.105 114.697 117.91 115.611 116.855 116.926C115.814 118.247 114.958 119.866 114.286 121.782C113.614 123.698 113.273 125.497 113.262 127.179C113.264 128.865 113.628 130.325 114.351 131.558C115.095 132.782 116.231 133.662 117.761 134.198ZM151.803 154.077C148.414 152.89 145.738 151.181 143.774 148.951C141.829 146.712 140.642 144.097 140.214 141.105C139.791 138.099 140.188 134.858 141.406 131.384C142.593 127.995 144.294 125.251 146.506 123.153C148.719 121.055 151.27 119.709 154.159 119.116C157.062 118.528 160.129 118.8 163.361 119.933C165.534 120.695 167.435 121.754 169.062 123.112C170.709 124.459 171.99 126.072 172.905 127.951C173.835 129.834 174.324 131.964 174.374 134.342C174.429 136.705 173.965 139.288 172.983 142.09L172.103 144.6L144.285 134.849L146.27 129.187L165.487 135.923C165.948 134.607 166.071 133.342 165.855 132.126C165.638 130.91 165.123 129.839 164.308 128.911C163.513 127.974 162.45 127.272 161.12 126.806C159.733 126.32 158.391 126.211 157.093 126.478C155.814 126.737 154.687 127.297 153.711 128.159C152.739 129.006 152.018 130.078 151.548 131.374L149.661 136.758C149.09 138.388 148.896 139.901 149.081 141.299C149.28 142.701 149.824 143.919 150.714 144.954C151.604 145.988 152.813 146.773 154.343 147.31C155.359 147.665 156.338 147.848 157.282 147.858C158.226 147.868 159.098 147.692 159.899 147.33C160.7 146.969 161.403 146.429 162.009 145.71L170.264 149.229C169.123 151.109 167.622 152.574 165.761 153.623C163.92 154.664 161.807 155.24 159.424 155.352C157.06 155.454 154.519 155.03 151.803 154.077ZM161.203 114.89L169.17 106.725L177.621 109.687L167.659 117.153L161.203 114.89ZM208.172 146.67L199.627 144.252C199.735 143.487 199.653 142.736 199.382 141.999C199.115 141.247 198.656 140.565 198.004 139.951C197.372 139.328 196.526 138.831 195.468 138.46C194.053 137.964 192.754 137.845 191.571 138.105C190.393 138.351 189.631 138.967 189.285 139.953C189.01 140.74 189.091 141.515 189.53 142.279C189.969 143.043 190.895 143.857 192.31 144.722L197.852 148.013C200.824 149.794 202.841 151.689 203.903 153.698C204.964 155.708 205.079 157.9 204.247 160.273C203.49 162.432 202.19 164.104 200.346 165.288C198.517 166.477 196.34 167.143 193.818 167.286C191.314 167.42 188.633 166.986 185.773 165.984C181.412 164.455 178.255 162.33 176.304 159.607C174.372 156.874 173.735 153.858 174.394 150.556L183.547 153.234C183.352 154.659 183.654 155.905 184.452 156.972C185.255 158.024 186.472 158.836 188.102 159.407C189.704 159.968 191.098 160.112 192.286 159.838C193.493 159.555 194.277 158.922 194.637 157.94C194.913 157.106 194.801 156.304 194.3 155.535C193.804 154.751 192.891 153.965 191.562 153.178L186.255 150.042C183.263 148.27 181.259 146.316 180.243 144.177C179.241 142.044 179.17 139.747 180.032 137.288C180.774 135.172 181.985 133.549 183.665 132.42C185.36 131.296 187.396 130.685 189.774 130.588C192.167 130.495 194.772 130.943 197.588 131.93C201.749 133.388 204.715 135.415 206.487 138.011C208.273 140.612 208.834 143.498 208.172 146.67ZM205.818 172.287L217.365 139.343L226.502 142.546L214.955 175.49L205.818 172.287ZM223.444 136.705C222.085 136.229 221.078 135.37 220.421 134.129C219.784 132.878 219.688 131.616 220.134 130.344C220.575 129.085 221.433 128.174 222.706 127.609C223.999 127.034 225.325 126.985 226.684 127.461C228.042 127.937 229.04 128.801 229.677 130.052C230.334 131.293 230.441 132.543 230 133.802C229.554 135.074 228.685 135.998 227.392 136.572C226.118 137.137 224.802 137.181 223.444 136.705ZM236.458 183.749C233.069 182.561 230.393 180.853 228.429 178.623C226.485 176.384 225.298 173.769 224.87 170.777C224.446 167.771 224.843 164.53 226.061 161.056C227.249 157.667 228.949 154.923 231.162 152.825C233.374 150.726 235.925 149.381 238.814 148.788C241.718 148.2 244.785 148.472 248.016 149.605C250.19 150.367 252.09 151.426 253.718 152.783C255.365 154.131 256.646 155.744 257.561 157.622C258.49 159.506 258.98 161.636 259.03 164.013C259.084 166.377 258.621 168.96 257.638 171.762L256.759 174.271L228.941 164.521L230.925 158.859L250.143 165.595C250.604 164.279 250.726 163.014 250.51 161.798C250.294 160.582 249.779 159.511 248.964 158.583C248.168 157.646 247.106 156.944 245.776 156.478C244.389 155.992 243.047 155.883 241.749 156.15C240.47 156.408 239.343 156.969 238.366 157.83C237.395 158.678 236.674 159.75 236.203 161.046L234.317 166.43C233.745 168.06 233.552 169.573 233.736 170.971C233.935 172.373 234.48 173.591 235.369 174.626C236.259 175.66 237.469 176.445 238.999 176.981C240.014 177.337 240.994 177.52 241.938 177.53C242.881 177.539 243.754 177.364 244.555 177.002C245.356 176.641 246.059 176.1 246.664 175.381L254.919 178.901C253.779 180.781 252.278 182.246 250.417 183.295C248.575 184.336 246.463 184.912 244.079 185.024C241.715 185.126 239.175 184.701 236.458 183.749Z" fill="#F5F5F5"/>
</svg>
